<svg width="40" height="40" viewBox="0 0 40 40" fill="none" xmlns="http://www.w3.org/2000/svg">
<rect width="40" height="40" fill="#609A42"/>
<path d="M20.3248 21.1447L10.9614 30.508H7L18.3441 19.164L20.3248 21.1447ZM35 18.5038C35 20.2744 34.3098 21.925 33.0493 23.1854L25.7267 30.508L21.135 25.9164L16.5734 30.508H12.612L21.1651 21.955L25.7567 26.5466L31.0686 21.2047C32.5691 19.7042 32.5691 17.2733 31.0686 15.8028C29.5681 14.3023 27.1672 14.3023 25.6667 15.8028L21.1651 20.3044L12.8221 11.9314V8L21.1651 16.343L23.686 13.8221C26.2669 11.2412 30.4684 11.2412 33.0493 13.8221C34.3098 15.0525 35 16.7331 35 18.5038Z" fill="white"/>
</svg>
